<?xml version="1.0" encoding="UTF-8"?>
<svg version="1.1" xmlns="http://www.w3.org/2000/svg" width="450" height="317">
<path d="M0 0 C0.94166016 -0.00773437 1.88332031 -0.01546875 2.85351562 -0.0234375 C8.49924062 -0.00772219 13.70629328 0.01651763 18.9375 2.25 C20.04291081 5.0634891 20.58865721 7.14833451 21.0625 10.0625 C22.46081954 16.06533483 22.46081954 16.06533483 26.828125 20.13671875 C29.857363 21.10458067 32.88521533 21.91427378 35.97314453 22.66894531 C39.45584164 23.69912417 42.57227186 25.39121866 45.75 27.125 C46.38365479 27.47054932 47.01730957 27.81609863 47.67016602 28.17211914 C52.86331755 31.08172824 57.44809593 34.36140837 61.9375 38.25 C62.73414063 38.89195313 63.53078125 39.53390625 64.3515625 40.1953125 C76.55833461 50.43690767 82.87630665 62.83850514 88.9375 77.25 C89.03106277 76.58031189 89.12462555 75.91062378 89.22102356 75.22064209 C90.11677555 68.81049213 91.0135139 62.40048095 91.91127491 55.99061203 C92.37243708 52.69775188 92.83315033 49.40483047 93.29321289 46.11181641 C93.8260485 42.29837082 94.36018237 38.4851088 94.89453125 34.671875 C95.13379082 32.95650543 95.13379082 32.95650543 95.37788391 31.20648193 C96.82768033 20.87574105 98.38975768 10.56828214 99.9375 0.25 C126.6675 0.25 153.3975 0.25 180.9375 0.25 C181.2675 8.83 181.5975 17.41 181.9375 26.25 C182.57558594 24.45691406 183.21367187 22.66382812 183.87109375 20.81640625 C184.70558079 18.48171779 185.54022427 16.14708525 186.375 13.8125 C186.79587891 12.62849609 187.21675781 11.44449219 187.65039062 10.22460938 C188.05322266 9.09990234 188.45605469 7.97519531 188.87109375 6.81640625 C189.24290771 5.77427979 189.61472168 4.73215332 189.99780273 3.65844727 C190.9375 1.25 190.9375 1.25 191.9375 0.25 C193.90119153 0.1559933 195.86829199 0.13256619 197.83422852 0.13647461 C199.09546036 0.13655014 200.3566922 0.13662567 201.65614319 0.13670349 C203.04289794 0.1418109 204.42965229 0.14702691 205.81640625 0.15234375 C207.22745209 0.15420799 208.63849857 0.15563186 210.04954529 0.15663147 C213.76990535 0.16045621 217.4902266 0.1702861 221.21057129 0.18133545 C225.00430781 0.19155052 228.79805058 0.19612929 232.59179688 0.20117188 C240.04038231 0.21190842 247.48893572 0.2289843 254.9375 0.25 C255.2675 2.56 255.5975 4.87 255.9375 7.25 C256.5975 7.25 257.2575 7.25 257.9375 7.25 C258.246875 6.46625 258.55625 5.6825 258.875 4.875 C259.9375 2.25 259.9375 2.25 260.9375 0.25 C272.4875 0.25 284.0375 0.25 295.9375 0.25 C293.88361736 7.09627547 291.71720374 13.45608073 288.9609375 19.98828125 C278.72109091 45.03542699 273.35297173 66.1660013 274.9375 93.25 C279.8875 93.25 284.8375 93.25 289.9375 93.25 C290.19266999 105.62819029 290.38796975 118.00575251 290.50743389 130.38603973 C290.56478042 136.13525961 290.64252017 141.882677 290.76733398 147.63085938 C290.88709519 153.18125527 290.95267383 158.72992097 290.98114967 164.2815094 C291.00143376 166.39640037 291.04104836 168.51119932 291.10053062 170.62535095 C291.54835686 187.20574873 291.54835686 187.20574873 287.57267761 192.25106812 C284.77169179 194.30474711 282.07044979 195.77161088 278.9375 197.25 C277.42224041 198.37679665 275.92622466 199.53071629 274.46484375 200.7265625 C269.30877605 204.11952841 264.50405723 203.93783665 258.5 203.625 C257.50806641 203.59792969 256.51613281 203.57085937 255.49414062 203.54296875 C252.97335598 203.47079905 250.45662389 203.36401396 247.9375 203.25 C247.2775 203.25 246.6175 203.25 245.9375 203.25 C227.27083333 203.25 208.60416667 203.25 189.9375 203.25 C189.6075 192.36 189.2775 181.47 188.9375 170.25 C186.9575 171.9 184.9775 173.55 182.9375 175.25 C179.5625 176.5625 179.5625 176.5625 176.9375 177.25 C176.9684375 178.30574219 176.9684375 178.30574219 177 179.3828125 C176.79232975 189.32502566 173.13768748 194.99573416 167.9375 203.25 C157.7075 203.25 147.4775 203.25 136.9375 203.25 C136.6075 199.95 136.2775 196.65 135.9375 193.25 C135.2775 193.9925 134.6175 194.735 133.9375 195.5 C126.83235386 202.54527131 117.28135707 204.29746872 107.625 204.5625 C101.15882273 204.43423277 94.95545258 203.70347298 88.9375 201.25 C88.15318604 200.95077637 87.36887207 200.65155273 86.56079102 200.34326172 C83.66989439 198.92213619 81.94730063 197.78500793 79.9375 195.25 C79.08232688 189.96140877 79.73556889 184.8965821 80.375 179.625 C80.51681558 178.21267893 80.65422447 176.79990807 80.78710938 175.38671875 C80.98271496 173.30998364 81.18115791 171.23421149 81.39828491 169.15960693 C82.01182428 163.17531083 82.09855506 157.25842754 81.9375 151.25 C81.46159424 151.86931396 80.98568848 152.48862793 80.49536133 153.12670898 C70.04994665 166.69377667 70.04994665 166.69377667 66.9375 168.25 C68.18452151 174.60450323 69.51114259 180.93327435 70.9375 187.25 C65.01619228 192.01085043 58.79076523 195.44476225 51.875 198.5 C51.1320166 198.82871094 50.3890332 199.15742188 49.62353516 199.49609375 C36.26918846 205.25 36.26918846 205.25 29.9375 205.25 C28.2875 199.64 26.6375 194.03 24.9375 188.25 C23.761875 188.415 22.58625 188.58 21.375 188.75 C10.06288381 189.97533127 -0.90229566 189.35782949 -12.0625 187.25 C-12.165625 188.178125 -12.26875 189.10625 -12.375 190.0625 C-13.10012322 195.24499832 -14.61919005 200.23018616 -16.0625 205.25 C-34.04493196 202.68108115 -50.29521084 190.0953436 -63.171875 177.96484375 C-64.9580419 176.18987267 -64.9580419 176.18987267 -67.0625 175.25 C-66.682314 170.83784145 -66.21504321 166.75847735 -64.9375 162.5 C-64.02100818 159.09588752 -63.74470642 157.5005575 -65.0625 154.25 C-65.80757812 153.66089844 -66.55265625 153.07179687 -67.3203125 152.46484375 C-81.74580371 140.81348547 -89.85159397 121.22512661 -92.0625 103.25 C-93.78301944 85.35736589 -90.38968084 65.81438823 -78.84765625 51.50390625 C-76.83606301 49.42678645 -76.83606301 49.42678645 -77 46.9375 C-78.29027966 43.67385145 -80.04446004 40.92262011 -82.00390625 38.01953125 C-83.0625 36.25 -83.0625 36.25 -83.0625 34.25 C-70.02952983 30.40805156 -56.97901676 26.62743646 -43.90600586 22.92404175 C-42.469746 22.51665284 -41.03387173 22.10790208 -39.59838867 21.69778442 C-37.57056971 21.11888144 -35.54136679 20.54510843 -33.51171875 19.97265625 C-31.75347778 19.47390991 -31.75347778 19.47390991 -29.9597168 18.96508789 C-27.0625 18.25 -27.0625 18.25 -24.0625 18.25 C-22.7425 12.97 -21.4225 7.69 -20.0625 2.25 C-13.24861718 0.48887336 -7.02368642 -0.05792731 0 0 Z " fill="#050201" transform="translate(123.0625,55.75)"/>
<path d="M0 0 C1.06605469 0.00410889 2.13210937 0.00821777 3.23046875 0.01245117 C4.38804688 0.01438477 5.545625 0.01631836 6.73828125 0.01831055 C7.95257813 0.03055664 9.166875 0.04280273 10.41796875 0.05541992 C11.63226563 0.05606445 12.8465625 0.05670898 14.09765625 0.05737305 C23.13747451 0.1026728 23.13747451 0.1026728 25.41796875 1.24291992 C26.26132296 3.6387693 26.98608403 5.99009088 27.66015625 8.43432617 C27.86980011 9.17182602 28.07944397 9.90932587 28.29544067 10.66917419 C28.74118435 12.24276251 29.18311485 13.81743506 29.62158203 15.39306641 C30.27634708 17.74569676 30.94164721 20.09511195 31.609375 22.4440918 C33.90421604 30.56122333 36.06607636 38.70054562 38.08201599 46.89129639 C39.217364 51.49179485 40.47254646 56.02383719 41.85546875 60.55541992 C43.59300869 66.3414346 45.21424669 72.14508554 46.73046875 77.99291992 C48.79672041 85.95143682 50.94051905 93.88766811 53.12094116 101.81555176 C53.48453797 103.13817191 53.84735611 104.46100637 54.2093811 105.78405762 C54.71945715 107.64724023 55.23271075 109.50955205 55.74609375 111.37182617 C56.04418945 112.45536377 56.34228516 113.53890137 56.64941406 114.65527344 C57.32287726 117.19777533 57.32287726 117.19777533 58.41796875 119.24291992 C66.64899282 108.2381535 70.66244181 98.18101819 69.41796875 84.24291992 C67.03463894 72.29755604 61.00662522 61.89101497 51.41796875 54.24291992 C49.66226563 53.3844043 49.66226563 53.3844043 47.87109375 52.50854492 C44.49324175 50.62371066 43.29260072 48.69974827 42.17651367 44.91088867 C42.00869385 44.23670898 41.84087402 43.5625293 41.66796875 42.86791992 C41.47243408 42.17053711 41.27689941 41.4731543 41.07543945 40.75463867 C39.2245025 33.99004132 37.74124811 27.12827593 36.41796875 20.24291992 C41.45627407 20.80446479 45.5685229 22.46861296 50.04296875 24.74291992 C51.09303101 25.27477905 51.09303101 25.27477905 52.16430664 25.81738281 C71.72785854 36.02649082 86.41591124 52.23674738 93.41796875 73.24291992 C97.60338047 87.20897797 96.12572381 102.91655268 90.41796875 116.24291992 C89.75796875 116.24291992 89.09796875 116.24291992 88.41796875 116.24291992 C88.25296875 117.50104492 88.08796875 118.75916992 87.91796875 120.05541992 C84.7652568 134.02368535 70.77546089 145.2548731 59.28979492 152.76123047 C39.28931 165.23944216 14.71388603 169.19104791 -8.3828125 164.98901367 C-24.52961938 161.22339693 -39.20779698 154.39556616 -51.58203125 143.24291992 C-52.53142578 142.39793945 -52.53142578 142.39793945 -53.5 141.53588867 C-61.98162022 133.54107226 -67.08053152 123.87649359 -71.58203125 113.24291992 C-71.94683594 112.41405273 -72.31164062 111.58518555 -72.6875 110.73120117 C-75.03880247 104.19067858 -74.798152 97.42020387 -74.83203125 90.55541992 C-74.85265625 89.5299707 -74.87328125 88.50452148 -74.89453125 87.44799805 C-74.97491873 71.5413247 -68.94538663 57.87479772 -59.58203125 45.24291992 C-59.00582031 44.67057617 -58.42960937 44.09823242 -57.8359375 43.50854492 C-56.36942189 42.32525637 -56.36942189 42.32525637 -56.58203125 40.43041992 C-58.05811242 37.20149237 -60.22893054 34.89770021 -62.58203125 32.24291992 C-56.6632527 30.16723717 -50.6230466 28.54251931 -44.58203125 26.86791992 C-36.3610847 24.58124777 -28.14925493 22.27306282 -19.9609375 19.87182617 C-17.58203125 19.24291992 -17.58203125 19.24291992 -15.58203125 19.24291992 C-15.91203125 21.55291992 -16.24203125 23.86291992 -16.58203125 26.24291992 C-17.24203125 26.24291992 -17.90203125 26.24291992 -18.58203125 26.24291992 C-18.80890625 27.41854492 -19.03578125 28.59416992 -19.26953125 29.80541992 C-20.22956164 34.19117026 -21.6102049 38.38321023 -23.08203125 42.61791992 C-24.9557946 48.02123606 -26.33238128 53.30311628 -27.125 58.97338867 C-27.60225892 61.34336672 -28.4075732 63.14049501 -29.58203125 65.24291992 C-31.89203125 63.59291992 -34.20203125 61.94291992 -36.58203125 60.24291992 C-46.19506705 72.00286705 -48.9725181 83.6999245 -47.96826172 98.7097168 C-46.87072647 105.90821602 -42.72087264 114.10407853 -37.58203125 119.24291992 C-35.48681781 113.12182515 -33.58800506 106.96924992 -31.83203125 100.74291992 C-31.57744141 99.84565186 -31.32285156 98.94838379 -31.06054688 98.02392578 C-30.2315807 95.09770531 -29.4063654 92.17044844 -28.58203125 89.24291992 C-28.29779297 88.23503418 -28.01355469 87.22714844 -27.72070312 86.1887207 C-22.65423492 68.20955919 -17.71418075 50.19800084 -12.8737793 32.15673828 C-11.70423747 27.80155762 -10.53016428 23.44761608 -9.35302734 19.09448242 C-8.87291951 17.31878275 -8.39388565 15.54279192 -7.91650391 13.76635742 C-7.37456957 11.75662878 -6.82260508 9.74961157 -6.26953125 7.74291992 C-5.84220703 6.18057617 -5.84220703 6.18057617 -5.40625 4.58666992 C-4.26452042 1.34004552 -3.48192124 0.32758242 0 0 Z " fill="#C13046" transform="translate(112.58203125,60.757080078125)"/>
<path d="M0 0 C1.06605469 0.00410889 2.13210937 0.00821777 3.23046875 0.01245117 C4.38804688 0.01438477 5.545625 0.01631836 6.73828125 0.01831055 C7.95257813 0.03055664 9.166875 0.04280273 10.41796875 0.05541992 C11.63226563 0.05606445 12.8465625 0.05670898 14.09765625 0.05737305 C23.13747451 0.1026728 23.13747451 0.1026728 25.41796875 1.24291992 C26.26132296 3.6387693 26.98608403 5.99009088 27.66015625 8.43432617 C27.86980011 9.17182602 28.07944397 9.90932587 28.29544067 10.66917419 C28.74118435 12.24276251 29.18311485 13.81743506 29.62158203 15.39306641 C30.27634708 17.74569676 30.94164721 20.09511195 31.609375 22.4440918 C33.90421604 30.56122333 36.06607636 38.70054562 38.08201599 46.89129639 C39.217364 51.49179485 40.47254646 56.02383719 41.85546875 60.55541992 C43.81987458 67.09689887 45.61883013 73.66680451 47.31860352 80.28173828 C48.65565308 85.44919787 50.07697711 90.58836476 51.546875 95.71948242 C52.10870575 97.69642637 52.6698073 99.67357619 53.23080444 101.65075684 C53.78451584 103.58834094 54.34981327 105.52260195 54.9152832 107.45678711 C55.42321411 109.24971191 55.42321411 109.24971191 55.94140625 111.07885742 C56.24997559 112.14668457 56.55854492 113.21451172 56.87646484 114.31469727 C57.44251296 117.37564457 57.31810549 119.28379747 56.41796875 122.24291992 C51.18299801 129.09213235 42.19517284 132.99171262 34.41796875 136.24291992 C33.42796875 136.24291992 32.43796875 136.24291992 31.41796875 136.24291992 C27.66909777 124.81489417 24.60974501 113.32209256 21.85546875 101.61791992 C19.52447334 91.76229008 17.13081693 81.96726023 14.28540039 72.24536133 C13.23160771 68.59786841 12.30390237 64.93430999 11.41796875 61.24291992 C11.16889771 62.2094751 11.16889771 62.2094751 10.91479492 63.19555664 C10.14703296 66.1702015 9.37626689 69.14406042 8.60546875 72.11791992 C8.34443359 73.13112305 8.08339844 74.14432617 7.81445312 75.18823242 C6.15368304 81.58527274 4.36908054 87.92828536 2.41796875 94.24291992 C1.42796875 93.74791992 1.42796875 93.74791992 0.41796875 93.24291992 C-0.87621623 97.09624554 -2.16692551 100.95072683 -3.45703125 104.80541992 C-3.82183594 105.89145508 -4.18664062 106.97749023 -4.5625 108.09643555 C-6.35286859 113.45126525 -8.09695227 118.79502493 -9.58203125 124.24291992 C-8.92203125 124.24291992 -8.26203125 124.24291992 -7.58203125 124.24291992 C-7.37578125 122.98479492 -7.16953125 121.72666992 -6.95703125 120.43041992 C-5.26668719 111.8419806 -2.30134058 103.54922038 0.41796875 95.24291992 C1.79267836 99.6653773 0.61859711 103.11360315 -0.63671875 107.43823242 C-0.85772247 108.2268869 -1.0787262 109.01554138 -1.306427 109.82809448 C-2.01416388 112.34405283 -2.73565597 114.85584226 -3.45703125 117.36791992 C-3.93574898 119.06689852 -4.41362346 120.76611495 -4.890625 122.46557617 C-8.389602 134.85806142 -8.389602 134.85806142 -9.58203125 137.24291992 C-17.64341622 135.40681272 -23.90099796 132.06868968 -30.58203125 127.24291992 C-31.27425781 126.78014648 -31.96648437 126.31737305 -32.6796875 125.84057617 C-34.39453125 124.49291992 -34.39453125 124.49291992 -36.58203125 121.24291992 C-36.80672992 117.37955238 -35.65321628 113.92893685 -34.58203125 110.24291992 C-34.1656662 108.74189499 -33.75038549 107.24056905 -33.3359375 105.73901367 C-32.3431384 102.18784767 -31.3238578 98.64534911 -30.2890625 95.10620117 C-28.50978551 89.01801075 -26.78954888 82.91407723 -25.08203125 76.80541992 C-24.78723877 75.75136963 -24.49244629 74.69731934 -24.1887207 73.61132812 C-20.33741726 59.81461859 -16.58560707 45.99155346 -12.8737793 32.15673828 C-11.70423747 27.80155762 -10.53016428 23.44761608 -9.35302734 19.09448242 C-8.87291951 17.31878275 -8.39388565 15.54279192 -7.91650391 13.76635742 C-7.37456957 11.75662878 -6.82260508 9.74961157 -6.26953125 7.74291992 C-5.98464844 6.70135742 -5.69976562 5.65979492 -5.40625 4.58666992 C-4.26452042 1.34004552 -3.48192124 0.32758242 0 0 Z " fill="#E7C82A" transform="translate(112.58203125,60.757080078125)"/>
<path d="M0 0 C5.28 0 10.56 0 16 0 C19.97098402 9.1185559 22.42254271 18.40613119 25 28 C25.33 18.76 25.66 9.52 26 0 C33.26 0 40.52 0 48 0 C48 28.71 48 57.42 48 87 C42.72 87 37.44 87 32 87 C30.68380433 83.10538002 29.37191222 79.20940031 28.0625 75.3125 C27.68931641 74.20970703 27.31613281 73.10691406 26.93164062 71.97070312 C26.39506836 70.3706543 26.39506836 70.3706543 25.84765625 68.73828125 C25.3527771 67.26935425 25.3527771 67.26935425 24.84790039 65.77075195 C24 63 24 63 23 58 C22.67 67.9 22.34 77.8 22 88 C14.74 88 7.48 88 0 88 C0 58.96 0 29.92 0 0 Z " fill="#D43E50" transform="translate(358,155)"/>
<path d="M0 0 C11.22 0 22.44 0 34 0 C34 1.65 34 3.3 34 5 C33.34 5 32.68 5 32 5 C32.12117188 5.80179687 32.24234375 6.60359375 32.3671875 7.4296875 C33.81669776 17.26405714 34.94665432 27.1164799 36 37 C36.66 37 37.32 37 38 37 C39.61164021 46.4236472 40.63049719 55.82173781 41.43261719 65.34228516 C41.62769535 67.65698167 41.82896882 69.97107902 42.03125 72.28515625 C42.15920443 73.76559477 42.28682151 75.24606249 42.4140625 76.7265625 C42.50308334 77.7577269 42.50308334 77.7577269 42.59390259 78.8097229 C42.82412814 81.55197173 43 84.24639722 43 87 C35.74 87 28.48 87 21 87 C18.75 76.875 18.75 76.875 19 72 C16.36 72 13.72 72 11 72 C11 76.95 11 81.9 11 87 C3.41 87 -4.18 87 -12 87 C-10.87451122 74.61962344 -10.87451122 74.61962344 -10.09204102 68.74365234 C-10.00732544 68.10301346 -9.92260986 67.46237457 -9.83532715 66.80232239 C-9.56057309 64.72986821 -9.28244726 62.65788584 -9.00390625 60.5859375 C-8.80825468 59.12107523 -8.61269473 57.65620072 -8.41722107 56.1913147 C-8.0094933 53.14034577 -7.5999457 50.08962774 -7.18920898 47.0390625 C-6.66610726 43.15207229 -6.14871165 39.26434624 -5.63281345 35.37639427 C-5.23143057 32.35781551 -4.82644131 29.33972851 -4.42045403 26.3217659 C-4.22827415 24.88917061 -4.03731334 23.45641117 -3.84765816 22.02347946 C-3.5813032 20.01433893 -3.30941549 18.00593429 -3.03735352 15.99755859 C-2.80871361 14.29193253 -2.80871361 14.29193253 -2.57545471 12.55184937 C-1.89237466 8.33570968 -0.92653516 4.1694082 0 0 Z " fill="#E2BF18" transform="translate(229,61)"/>
<path d="M0 0 C1.42848669 -0.01145629 2.85693275 -0.03180641 4.28515625 -0.06152344 C13.85883824 -0.26067382 21.6213343 0.04310748 29.40356445 6.08422852 C37.22243101 15.22568941 38.18988363 25.50689715 37.35327148 37.19848633 C36.47675096 44.4226305 33.9181282 51.17203678 28.41137695 56.04516602 C23.93870302 59.33768874 20.42571535 59.41840924 14.97387695 59.35766602 C12.37512695 59.33704102 9.77637695 59.31641602 7.09887695 59.29516602 C7.09887695 69.19516602 7.09887695 79.09516602 7.09887695 89.29516602 C-0.16112305 89.29516602 -7.42112305 89.29516602 -14.90112305 89.29516602 C-14.90112305 60.25516602 -14.90112305 31.21516602 -14.90112305 1.29516602 C-10.57127057 -0.86976022 -4.80761843 0.0268093 0 0 Z " fill="#D13C4F" transform="translate(285.901123046875,153.704833984375)"/>
<path d="M0 0 C0.66459229 -0.01434082 1.32918457 -0.02868164 2.01391602 -0.04345703 C7.6123856 0.01297499 10.32406027 1.2465226 16 3.375 C16 11.955 16 20.535 16 29.375 C11 24.375 11 24.375 8.8125 22.125 C6.21673305 19.61874226 5.25518732 19.39355908 1.5625 19.125 C-1.85088602 19.12217687 -1.85088602 19.12217687 -4 20.4375 C-5.70572926 23.74235044 -4.99603667 25.85957645 -4 29.375 C-0.90583101 34.29366173 3.3944727 37.49682831 8.04296875 40.84765625 C13.08118136 44.77967448 17.59436831 50.02061541 19 56.375 C20.00499816 65.84183455 18.93427434 73.75599927 13.421875 81.62890625 C9.06963311 86.95158046 4.5659517 90.18634943 -2 92.375 C-11.21731497 92.92395366 -21.32836699 93.20522308 -29 87.375 C-29.56762695 84.64770508 -29.56762695 84.64770508 -29.48828125 81.39453125 C-29.47216797 80.23115234 -29.45605469 79.06777344 -29.43945312 77.86914062 C-29.39755859 76.65419922 -29.35566406 75.43925781 -29.3125 74.1875 C-29.27866211 72.34768555 -29.27866211 72.34768555 -29.24414062 70.47070312 C-29.18513053 67.43758441 -29.10284592 64.40689778 -29 61.375 C-27.56350556 62.17003739 -26.12737864 62.96573884 -24.69140625 63.76171875 C-23.49173218 64.42627075 -23.49173218 64.42627075 -22.26782227 65.10424805 C-20.47716962 66.10762269 -18.70392616 67.14206411 -16.9375 68.1875 C-13.0258432 69.76880807 -10.20042016 69.65977425 -6 69.375 C-4.73745077 68.2986509 -4.73745077 68.2986509 -4.5 65.8125 C-5.43543274 59.38139989 -10.58462239 55.61833693 -15.25390625 51.44140625 C-15.82858643 50.92465332 -16.4032666 50.40790039 -16.99536133 49.87548828 C-18.14147959 48.85455477 -19.29854766 47.84574715 -20.4675293 46.85107422 C-25.479606 42.42852207 -27.71749325 38.19175851 -28.3984375 31.40234375 C-28.40627996 30.03906267 -28.39834526 28.67560374 -28.375 27.3125 C-28.38660156 26.63123047 -28.39820313 25.94996094 -28.41015625 25.24804688 C-28.36095753 16.7120694 -23.98123647 11.55364976 -18.3671875 5.58984375 C-12.77197208 0.35471645 -7.49002318 0.13938929 0 0 Z " fill="#D4394C" transform="translate(244,152.625)"/>
<path d="M0 0 C7.59 0 15.18 0 23 0 C24.0042884 3.93645186 25.00360578 7.87404986 26 11.8125 C26.28617187 12.93205078 26.57234375 14.05160156 26.8671875 15.20507812 C27.13789063 16.27822266 27.40859375 17.35136719 27.6875 18.45703125 C27.93886719 19.44678955 28.19023437 20.43654785 28.44921875 21.45629883 C29 24 29 24 29 27 C29.66 27 30.32 27 31 27 C31.11214844 25.71222656 31.22429687 24.42445312 31.33984375 23.09765625 C31.90212324 18.03714088 33.13087547 13.31198236 34.5625 8.4375 C35.366875 5.653125 36.17125 2.86875 37 0 C44.26 0 51.52 0 59 0 C57.57548387 6.41032257 56.03016773 11.84672179 53.55859375 17.80078125 C44.12938732 41.45513598 39.77217129 61.54198193 41 87 C33.74 87 26.48 87 19 87 C19.13664062 84.89753906 19.27328125 82.79507813 19.4140625 80.62890625 C20.59807674 52.22873386 11.52348433 28.64258712 0.67662048 2.73150635 C0 1 0 1 0 0 Z " fill="#E6C112" transform="translate(350,61)"/>
<path d="M0 0 C7.59 0 15.18 0 23 0 C23 23.1 23 46.2 23 70 C28.28 70 33.56 70 39 70 C39 75.61 39 81.22 39 87 C26.13 87 13.26 87 0 87 C0 58.29 0 29.58 0 0 Z " fill="#D6B518" transform="translate(319,61)"/>
<path d="M0 0 C7.26 0 14.52 0 22 0 C22 23.43 22 46.86 22 71 C27.28 71 32.56 71 38 71 C38 76.28 38 81.56 38 87 C25.46 87 12.92 87 0 87 C0 58.29 0 29.58 0 0 Z " fill="#DAB918" transform="translate(276,61)"/>
<path d="M0 0 C7.26 0 14.52 0 22 0 C22 29.04 22 58.08 22 88 C14.74 88 7.48 88 0 88 C0 58.96 0 29.92 0 0 Z " fill="#D74254" transform="translate(328,155)"/>
<path d="M0 0 C1.98667823 3.75141568 2.91120699 7.50212375 3.8125 11.625 C5.17358846 17.63593749 6.67765909 23.57551056 8.375 29.5 C10.82105588 38.07656751 12.90474978 46.72898842 14.94482422 55.41015625 C15.18346191 56.42335937 15.42209961 57.4365625 15.66796875 58.48046875 C15.89403809 59.44130371 16.12010742 60.40213867 16.35302734 61.39208984 C16.89546155 63.57861142 17.50524075 65.71390166 18.17578125 67.86328125 C19.01205758 71.04588739 19.15973853 73.72536008 19 77 C5.44926175 81.31159854 -7.44926175 81.31159854 -21 77 C-18.14528697 64.18737623 -14.70124248 51.59275434 -11 39 C-12.96502227 44.8335798 -14.86368257 50.68330603 -16.6875 56.5625 C-16.91244141 57.28501953 -17.13738281 58.00753906 -17.36914062 58.75195312 C-17.91356234 60.50105268 -18.45690041 62.25048947 -19 64 C-19.66 64 -20.32 64 -21 64 C-19.68886656 56.18354338 -17.44889075 48.86020171 -14.875 41.375 C-14.50246094 40.27542969 -14.12992187 39.17585938 -13.74609375 38.04296875 C-12.83623435 35.36005 -11.92078919 32.67918301 -11 30 C-10.34 30.33 -9.68 30.66 -9 31 C-8.83395264 30.38068604 -8.66790527 29.76137207 -8.49682617 29.12329102 C-7.72983044 26.26893888 -6.95869024 23.41572159 -6.1875 20.5625 C-5.92646484 19.58861328 -5.66542969 18.61472656 -5.39648438 17.61132812 C-3.78563165 11.665094 -2.00595103 5.82508902 0 0 Z " fill="#040201" transform="translate(124,121)"/>
<path d="M0 0 C0.508783 1.55966218 1.00663469 3.12289241 1.5 4.6875 C1.7784375 5.55761719 2.056875 6.42773438 2.34375 7.32421875 C3.01803747 10.07354565 3.34623358 12.18802187 3 15 C-2.48950176 21.78516056 -15.55607478 27.77555133 -24 29 C-24.48937429 27.67037928 -24.96583581 26.33600575 -25.4375 25 C-25.70433594 24.2575 -25.97117188 23.515 -26.24609375 22.75 C-27.22563333 19.17696444 -27.59815812 15.68290037 -28 12 C-26.54980469 11.45472656 -26.54980469 11.45472656 -25.0703125 10.8984375 C-17.94443559 8.16434525 -11.34938153 5.34397755 -4.953125 1.1015625 C-3 0 -3 0 0 0 Z " fill="#ECDE6B" transform="translate(180,214)"/>
<path d="M0 0 C1.39798828 0.77923828 1.39798828 0.77923828 2.82421875 1.57421875 C11.05797544 6.09990751 19.13972319 9.81428249 28 13 C26.68 18.28 25.36 23.56 24 29 C13.78692941 26.05725085 4.7464433 20.96646432 -4 15 C-3.71459486 13.43634416 -3.42136502 11.87411566 -3.125 10.3125 C-2.96257812 9.44238281 -2.80015625 8.57226562 -2.6328125 7.67578125 C-1.99419952 4.97547329 -1.09215515 2.54683238 0 0 Z " fill="#EFE06C" transform="translate(67,214)"/>
<path d="M0 0 C1.75596418 3.22200582 2.80044163 6.42825987 3.8046875 9.953125 C4.13879639 11.12190186 4.47290527 12.29067871 4.81713867 13.49487305 C5.16623291 14.73406494 5.51532715 15.97325684 5.875 17.25 C6.23505127 18.5181958 6.59510254 19.7863916 6.96606445 21.09301758 C9.14029984 28.79969866 11.18194988 36.51649613 13.05859375 44.30078125 C14.3674164 49.44374825 15.88062222 54.52026582 17.42651367 59.59643555 C19 64.80113944 19 64.80113944 19 67 C18.34 67 17.68 67 17 67 C17 68.32 17 69.64 17 71 C16.34 71 15.68 71 15 71 C6.97065621 42.25836088 6.97065621 42.25836088 3.66455078 28.72924805 C2.75617384 25.01319611 1.82474727 21.3093239 0.80859375 17.62109375 C0.61942383 16.93321777 0.43025391 16.2453418 0.23535156 15.53662109 C-0.27110653 13.71165667 -0.78558901 11.88892426 -1.30078125 10.06640625 C-1.94380968 7.24642122 -2.14515933 4.87630529 -2 2 C-1.34 2 -0.68 2 0 2 C0 1.34 0 0.68 0 0 Z " fill="#CDAD16" transform="translate(138,65)"/>
<path d="M0 0 C2.08209499 3.4349492 2.08209499 3.4349492 1.72247314 5.91018677 C1.47535583 6.57033783 1.22823853 7.23048889 0.97363281 7.91064453 C0.69964661 8.6646756 0.4256604 9.41870667 0.14337158 10.19558716 C-0.16690979 10.99987152 -0.47719116 11.80415588 -0.796875 12.6328125 C-1.26012177 13.88238235 -1.26012177 13.88238235 -1.73272705 15.15719604 C-2.38823434 16.91656045 -3.05108838 18.67320247 -3.72070312 20.42724609 C-4.74667347 23.11628127 -5.75017081 25.8128688 -6.75 28.51171875 C-7.38932573 30.21923703 -8.0299086 31.92628526 -8.671875 33.6328125 C-8.97405945 34.44114532 -9.2762439 35.24947815 -9.58758545 36.08230591 C-11.58355939 41.28980738 -12.96262216 43.64922367 -18 46 C-15.90148384 34.24830951 -11.04349707 23.21568314 -6.3125 12.3125 C-5.88481323 11.32431274 -5.88481323 11.32431274 -5.44848633 10.31616211 C-3.85698917 6.71400996 -2.10605072 3.32768739 0 0 Z " fill="#D0AC06" transform="translate(406,64)"/>
<path d="M0 0 C8.25683339 3.17570515 14.23525034 15.26859448 17.78125 22.90234375 C21.41446725 32.13677092 22.2521992 40.9929457 22.3125 50.8125 C22.31813965 51.68382568 22.3237793 52.55515137 22.32958984 53.45288086 C22.23991017 61.44273213 20.71145796 68.5931607 17.875 76.0625 C17.34519531 77.47208984 17.34519531 77.47208984 16.8046875 78.91015625 C16.53914063 79.59980469 16.27359375 80.28945312 16 81 C15.34 81 14.68 81 14 81 C15.01882444 76.21936224 16.12749264 71.55321648 17.54296875 66.875 C19.11318469 61.12942617 19.54062301 55.75107589 19.5 49.8125 C19.49355469 48.8129126 19.48710937 47.8133252 19.48046875 46.78344727 C19.05547132 29.36833869 11.84983538 13.73857303 0 1 C0 0.67 0 0.34 0 0 Z " fill="#F8EBEE" transform="translate(183,103)"/>
<path d="M0 0 C13.52597856 10.07253723 21.5525258 26.5696693 24 43 C24.93473711 54.29367297 23.47997008 65.54024377 19 76 C18.00777238 72.89727859 18.04765369 71.0069407 18.91796875 67.88671875 C23.11203013 50.59814054 20.0729243 30.92103256 11.11230469 15.70800781 C8.43953052 11.60380938 5.20551982 7.96680898 1.94140625 4.328125 C0 2 0 2 0 0 Z " fill="#AE3A4E" transform="translate(184,101)"/>
<path d="M0 0 C5 1 5 1 7.3125 3.5 C9.42676772 7.88514787 9.84702544 11.21730077 9 16 C6.50453041 21.08336397 5.42867798 21.82852881 0 24 C0 16.08 0 8.16 0 0 Z " fill="#030001" transform="translate(293,172)"/>
<path d="M0 0 C0 3.78039106 -1.1727529 4.98356784 -3.3125 8.0625 C-6.7014205 13.23830586 -8.6623348 17.98585727 -10 24 C-10.226875 24.969375 -10.45375 25.93875 -10.6875 26.9375 C-11.93487939 39.16181807 -10.21882118 50.29159792 -2.953125 60.51171875 C-2 62 -2 62 -2 64 C-6.74790435 62.15527283 -7.78506167 59.12674871 -9.828125 54.6875 C-10.21484375 53.800625 -10.6015625 52.91375 -11 52 C-11.48726562 50.9790625 -11.48726562 50.9790625 -11.984375 49.9375 C-15.88986094 40.50538301 -15.3706891 27.60799657 -11.90625 18.12890625 C-11.6071875 17.42636719 -11.308125 16.72382813 -11 16 C-10.7215625 15.30777344 -10.443125 14.61554688 -10.15625 13.90234375 C-7.72169202 8.45606965 -4.07638107 4.30539124 0 0 Z " fill="#FAEFF1" transform="translate(73,117)"/>
<path d="M0 0 C1.88337162 2.82505744 2.62082864 4.70277325 3.515625 7.91796875 C3.9336438 9.41118652 3.9336438 9.41118652 4.36010742 10.93457031 C4.80060425 12.54477051 4.80060425 12.54477051 5.25 14.1875 C5.55719971 15.29577148 5.86439941 16.40404297 6.1809082 17.54589844 C8.57368421 26.25429671 10.78215263 35.00291772 12.92724609 43.77514648 C14.49623498 50.14562589 16.24512777 56.38794117 18.3359375 62.609375 C19 65 19 65 19 69 C18.34 69 17.68 69 17 69 C8.97065621 40.25836088 8.97065621 40.25836088 5.66455078 26.72924805 C4.75617384 23.01319611 3.82474727 19.3093239 2.80859375 15.62109375 C2.61942383 14.93321777 2.43025391 14.2453418 2.23535156 13.53662109 C1.72889347 11.71165667 1.21441099 9.88892426 0.69921875 8.06640625 C0.05619032 5.24642122 -0.14515933 2.87630529 0 0 Z " fill="#282203" transform="translate(136,67)"/>
<path d="M0 0 C0.66 0 1.32 0 2 0 C2.33941704 3.97867183 2.67041655 7.95800248 3 11.9375 C3.09539062 13.05447266 3.19078125 14.17144531 3.2890625 15.32226562 C3.80242306 21.57426392 4.10643087 27.72723037 4 34 C2.02 34 0.04 34 -2 34 C-1.46356473 22.65496465 -0.88120182 11.32438079 0 0 Z " fill="#0E0C01" transform="translate(243,82)"/>
<path d="M0 0 C0.33 0 0.66 0 1 0 C1.43180046 4.14382972 1.85887322 8.28811252 2.28173828 12.43286133 C2.42597507 13.84021873 2.57146041 15.2474488 2.71826172 16.65454102 C2.93011599 18.68733322 3.13734464 20.7205544 3.34375 22.75390625 C3.53227539 24.58417358 3.53227539 24.58417358 3.72460938 26.45141602 C3.99871688 29.98346619 4.04766467 33.45891217 4 37 C2.515 37.495 2.515 37.495 1 38 C0.4920154 34.00097233 -0.00493676 30.00064616 -0.5 26 C-0.64308594 24.87464844 -0.78617187 23.74929687 -0.93359375 22.58984375 C-1.65976893 16.676703 -2.17521659 10.95736399 -2 5 C-1.34 5 -0.68 5 0 5 C0 3.35 0 1.7 0 0 Z " fill="#645203" transform="translate(263,61)"/>
<path d="M0 0 C0.33 0.66 0.66 1.32 1 2 C0.19897461 4.34399414 0.19897461 4.34399414 -1.09765625 7.28515625 C-1.56695557 8.36611572 -2.03625488 9.4470752 -2.51977539 10.56079102 C-3.02887451 11.71635498 -3.53797363 12.87191895 -4.0625 14.0625 C-7.79767189 22.67267939 -11.36259697 31.25133706 -14.24829102 40.18579102 C-14.78320516 41.80751486 -15.38468579 43.40704369 -16 45 C-16.99 45.495 -16.99 45.495 -18 46 C-15.90148384 34.24830951 -11.04349707 23.21568314 -6.3125 12.3125 C-5.88481323 11.32431274 -5.88481323 11.32431274 -5.44848633 10.31616211 C-3.85698917 6.71400996 -2.10605072 3.32768739 0 0 Z " fill="#2C2401" transform="translate(406,64)"/>
<path d="M0 0 C0.33 0 0.66 0 1 0 C1.09474609 1.59714844 1.09474609 1.59714844 1.19140625 3.2265625 C1.93660163 12.77700421 3.79683582 19.89973975 8.5390625 28.2421875 C10 31 10 31 10 34 C7 33 7 33 5.71875 31.06640625 C1.02571967 21.42463561 -1.98111374 12.86772144 -1 2 C-0.67 1.34 -0.34 0.68 0 0 Z " fill="#BA3447" transform="translate(62,145)"/>
<path d="M0 0 C2.77279385 5.05422607 4.05132209 10.64047148 5.6237793 16.15478516 C6.1882963 18.12778307 6.76472382 20.09704942 7.34179688 22.06640625 C7.69693359 23.30519531 8.05207031 24.54398438 8.41796875 25.8203125 C8.74563232 26.95742676 9.0732959 28.09454102 9.41088867 29.26611328 C10 32 10 32 9 34 C8.01 34.495 8.01 34.495 7 35 C5.84985216 30.62612264 4.70564375 26.25071268 3.5625 21.875 C3.23701172 20.6375 2.91152344 19.4 2.57617188 18.125 C2.26357422 16.92617187 1.95097656 15.72734375 1.62890625 14.4921875 C1.34088135 13.39245605 1.05285645 12.29272461 0.75610352 11.15966797 C-1.29473244 2.58946488 -1.29473244 2.58946488 0 0 Z " fill="#BE9E08" transform="translate(138,65)"/>
<path d="M0 0 C0.66 0.33 1.32 0.66 2 1 C1.60167969 1.60585937 1.20335938 2.21171875 0.79296875 2.8359375 C-5.66311148 13.04628336 -7.4542809 21.9941799 -8 34 C-8.33 34 -8.66 34 -9 34 C-10.38561142 21.47941488 -10.1305292 11.27720357 -2 1 C-1.34 0.67 -0.68 0.34 0 0 Z " fill="#B1354C" transform="translate(72,122)"/>
<path d="M0 0 C0 3.78039106 -1.1727529 4.98356784 -3.3125 8.0625 C-7.84898402 14.99094832 -9.92321179 21.81640962 -11 30 C-11.99 30.33 -12.98 30.66 -14 31 C-13.70949804 18.82532686 -8.56668979 8.56668979 0 0 Z " fill="#F3E0E3" transform="translate(73,117)"/>
<path d="M0 0 C8.58259422 3.30099778 14.10207557 15.54173762 17.90625 23.30859375 C18.95344096 25.88543151 19.56237014 28.25984031 20 31 C19.01 30.67 18.02 30.34 17 30 C15.859375 27.6640625 15.859375 27.6640625 14.75 24.625 C11.23508113 15.73183178 6.24735219 8.19392071 0 1 C0 0.67 0 0.34 0 0 Z " fill="#F4E4E7" transform="translate(183,103)"/>
<path d="M0 0 C1.21658776 3.64976329 0.65077741 4.75182394 -0.58203125 8.33203125 C-0.93716797 9.37810547 -1.29230469 10.42417969 -1.65820312 11.50195312 C-2.03912109 12.59443359 -2.42003906 13.68691406 -2.8125 14.8125 C-3.18181641 15.89337891 -3.55113281 16.97425781 -3.93164062 18.08789062 C-4.62457361 20.11443969 -5.32119823 22.13973294 -6.02270508 24.16333008 C-7.03527439 27.10238648 -8.02140071 30.04947814 -9 33 C-9.66 33 -10.32 33 -11 33 C-9.55934387 25.75900584 -7.4009157 18.95397133 -4.9375 12 C-4.57333984 10.95199219 -4.20917969 9.90398437 -3.83398438 8.82421875 C-1.1369646 1.1369646 -1.1369646 1.1369646 0 0 Z " fill="#F3E3E6" transform="translate(94,84)"/>
<path d="M0 0 C1.32 0.33 2.64 0.66 4 1 C4.234375 3.30078125 4.234375 3.30078125 4 6 C2.390625 7.73046875 2.390625 7.73046875 0.25 9.1875 C-0.44609375 9.67605469 -1.1421875 10.16460937 -1.859375 10.66796875 C-3.86032112 11.91308304 -5.87268157 12.98904462 -8 14 C-8 13.34 -8 12.68 -8 12 C-9.65 12.33 -11.3 12.66 -13 13 C-10.89923566 10.89923566 -9.15219845 10.04165509 -6.5 8.75 C-3.03292237 6.88568057 -2.17766323 6.37664604 -0.4375 2.6875 C-0.293125 1.800625 -0.14875 0.91375 0 0 Z " fill="#9A9147" transform="translate(179,223)"/>
<path d="M0 0 C0.66 1.32 1.32 2.64 2 4 C1.01 4.495 1.01 4.495 0 5 C-0.71627779 7.41969473 -1.32199837 9.79246525 -1.875 12.25 C-3.61425581 19.61273876 -5.68083237 26.79577716 -8 34 C-8.66 34 -9.32 34 -10 34 C-8.68886656 26.18354338 -6.44889075 18.86020171 -3.875 11.375 C-3.50246094 10.27542969 -3.12992187 9.17585937 -2.74609375 8.04296875 C-1.83623435 5.36005 -0.92078919 2.67918301 0 0 Z " fill="#29250B" transform="translate(113,151)"/>
<path d="M0 0 C0 0.66 0 1.32 0 2 C-2.30084828 3.71964442 -4.59661282 5.3107461 -7 6.875 C-7.64839844 7.30941406 -8.29679687 7.74382812 -8.96484375 8.19140625 C-18.48656448 14.47008547 -18.48656448 14.47008547 -23 16 C-23.99 15.67 -24.98 15.34 -26 15 C-25.48091064 14.68772461 -24.96182129 14.37544922 -24.42700195 14.05371094 C-22.05324897 12.62283965 -19.68286594 11.18647466 -17.3125 9.75 C-16.49587891 9.25886719 -15.67925781 8.76773438 -14.83789062 8.26171875 C-11.42318787 6.18801263 -8.20756939 4.16919286 -5.10546875 1.640625 C-3 0 -3 0 0 0 Z " fill="#F6CACF" transform="translate(184,200)"/>
<path d="M0 0 C0 0.99 0 1.98 0 3 C-4.91174193 7.81291413 -10.76980579 12.07562313 -17 15 C-17.99 14.67 -18.98 14.34 -20 14 C-17.18048247 10.77621341 -13.59036248 8.6925125 -10 6.4375 C-8.7499131 5.64466825 -7.49991015 4.85170411 -6.25 4.05859375 C-5.1775 3.37925781 -4.105 2.69992188 -3 2 C-2.01 1.34 -1.02 0.68 0 0 Z " fill="#D33C4D" transform="translate(184,201)"/>
<path d="M0 0 C1.02826931 3.13667908 0.99386675 4.83184742 -0.21484375 7.890625 C-0.48876953 8.59960938 -0.76269531 9.30859375 -1.04492188 10.0390625 C-1.33947266 10.76867187 -1.63402344 11.49828125 -1.9375 12.25 C-2.37352539 13.36761719 -2.37352539 13.36761719 -2.81835938 14.5078125 C-3.53573722 16.34241814 -4.26657439 18.17175065 -5 20 C-5.99 20 -6.98 20 -8 20 C-3.4351585 3.4351585 -3.4351585 3.4351585 0 0 Z " fill="#D6B310" transform="translate(398,88)"/>
<path d="M0 0 C0.33 0 0.66 0 1 0 C1.00515625 0.58265625 1.0103125 1.1653125 1.015625 1.765625 C1.90711984 11.21547031 8.29152834 16.03007568 15 22 C10.9520819 22 9.95386558 20.50702321 7 17.8125 C6.13375 17.03519531 5.2675 16.25789063 4.375 15.45703125 C-0.93488451 9.96374612 -0.93488451 9.96374612 -1.07421875 5.76171875 C-0.71614583 3.84114583 -0.35807292 1.92057292 0 0 Z " fill="#F5D7DB" transform="translate(235,174)"/>
<path d="M0 0 C0.99 0.33 1.98 0.66 3 1 C2.54705135 2.75140143 2.08741252 4.50107344 1.625 6.25 C1.36976563 7.22453125 1.11453125 8.1990625 0.8515625 9.203125 C0.10401491 11.65837303 -0.77123817 13.75617405 -2 16 C-2.66 16 -3.32 16 -4 16 C-2.84941444 10.60204011 -1.57578241 5.29012667 0 0 Z " fill="#F6DDE1" transform="translate(201,168)"/>
<path d="M0 0 C0.66 0 1.32 0 2 0 C2.6700834 2.12392506 3.33596797 4.24917524 4 6.375 C4.37125 7.55835937 4.7425 8.74171875 5.125 9.9609375 C6 13 6 13 6 15 C5.01 15 4.02 15 3 15 C2.49363393 13.25183142 1.99515381 11.50137737 1.5 9.75 C1.2215625 8.77546875 0.943125 7.8009375 0.65625 6.796875 C0 4 0 4 0 0 Z " fill="#D4B621" transform="translate(151,117)"/>
<path d="M0 0 C0.33 0 0.66 0 1 0 C1.22119939 2.62450086 1.42746669 5.24870486 1.625 7.875 C1.68945312 8.62136719 1.75390625 9.36773437 1.8203125 10.13671875 C1.96087365 12.0870047 1.98759849 14.04469467 2 16 C1.34 16.66 0.68 17.32 0 18 C-0.83102978 14.37908451 -1.13513041 11.02529448 -1.125 7.3125 C-1.12757812 6.35988281 -1.13015625 5.40726563 -1.1328125 4.42578125 C-1 2 -1 2 0 0 Z " fill="#C3475B" transform="translate(62,145)"/>
<path d="M0 0 C2.48659621 2.48659621 3.0343111 4.60483946 4.125 7.9375 C4.47820312 8.99839844 4.83140625 10.05929688 5.1953125 11.15234375 C6 14 6 14 6 17 C5.34 17 4.68 17 4 17 C3.32635339 14.91891315 2.66133202 12.8350329 2 10.75 C1.62875 9.58984375 1.2575 8.4296875 0.875 7.234375 C0 4 0 4 0 0 Z " fill="#3C3611" transform="translate(161,159)"/>
<path d="M0 0 C0.66 0 1.32 0 2 0 C1.67 3.96 1.34 7.92 1 12 C0.01 12.33 -0.98 12.66 -2 13 C-1.85851011 11.3954444 -1.71164314 9.79136233 -1.5625 8.1875 C-1.48128906 7.29417969 -1.40007813 6.40085938 -1.31640625 5.48046875 C-1 3 -1 3 0 0 Z " fill="#F1D7DC" transform="translate(61,135)"/>
<path d="M0 0 C0 0.66 0 1.32 0 2 C-0.66 2 -1.32 2 -2 2 C-2 3.32 -2 4.64 -2 6 C-3.98 6.33 -5.96 6.66 -8 7 C-8 5.68 -8 4.36 -8 3 C-2.25 0 -2.25 0 0 0 Z " fill="#ED8B94" transform="translate(250,237)"/>
<path d="M0 0 C1.56197295 2.34295943 3.10846459 4.69014198 4.625 7.0625 C5.07101563 7.75472656 5.51703125 8.44695312 5.9765625 9.16015625 C7 11 7 11 7 13 C3.16031141 11.5435664 1.68993538 9.71785783 0 6 C-0.1875 2.6875 -0.1875 2.6875 0 0 Z " fill="#F5DADE" transform="translate(64,168)"/>
<path d="M0 0 C0 0.66 0 1.32 0 2 C-1.8984375 3.5078125 -1.8984375 3.5078125 -4.375 5.125 C-5.59316406 5.93324219 -5.59316406 5.93324219 -6.8359375 6.7578125 C-9 8 -9 8 -11 8 C-11 7.34 -11 6.68 -11 6 C-9.35546875 4.4921875 -9.35546875 4.4921875 -7.1875 2.875 C-6.47980469 2.33617187 -5.77210938 1.79734375 -5.04296875 1.2421875 C-3 0 -3 0 0 0 Z " fill="#F9E4E6" transform="translate(184,200)"/>
<path d="M0 0 C0.33 0 0.66 0 1 0 C0.67 5.94 0.34 11.88 0 18 C-0.33 18 -0.66 18 -1 18 C-1.22181406 15.56304285 -1.42791119 13.126474 -1.625 10.6875 C-1.68945312 9.99720703 -1.75390625 9.30691406 -1.8203125 8.59570312 C-2.11802847 4.7440028 -2.20763723 3.31145584 0 0 Z " fill="#8A2334" transform="translate(64,138)"/>
<path d="M0 0 C3.21524305 1.40844718 5.32183868 3.10344786 7.75 5.625 C8.67039063 6.57246094 8.67039063 6.57246094 9.609375 7.5390625 C10.29773438 8.26222656 10.29773438 8.26222656 11 9 C7.25983417 9 6.54723807 8.0658409 3.8125 5.625 C3.09707031 4.99851563 2.38164062 4.37203125 1.64453125 3.7265625 C0 2 0 2 0 0 Z " fill="#F8E1E4" transform="translate(239,187)"/>
<path d="M0 0 C2.38672669 2.96283313 4.7353371 5.94270509 7 9 C3.2273236 8.46104623 1.31787009 7.00464642 -1 4 C-0.75 1.75 -0.75 1.75 0 0 Z " fill="#C7364A" transform="translate(238,180)"/>
<path d="M0 0 C0.66 0 1.32 0 2 0 C1.54803755 1.60597325 1.08817673 3.20972508 0.625 4.8125 C0.36976563 5.70582031 0.11453125 6.59914063 -0.1484375 7.51953125 C-1 10 -1 10 -3 13 C-3.93045933 10.44855176 -4.08564091 9.25993522 -3.22265625 6.640625 C-2.83980469 5.85171875 -2.45695312 5.0628125 -2.0625 4.25 C-1.68222656 3.45078125 -1.30195313 2.6515625 -0.91015625 1.828125 C-0.60980469 1.22484375 -0.30945313 0.6215625 0 0 Z " fill="#CAA501" transform="translate(406,66)"/>
<path d="M0 0 C0.33 0 0.66 0 1 0 C2.45184478 4.53701494 3.23509196 8.18061476 3 13 C0.68468695 10.68468695 -0.07417343 9.13356684 -1 6 C-0.625 2.6875 -0.625 2.6875 0 0 Z " fill="#F8E7EA" transform="translate(61,158)"/>
<path d="M0 0 C1.90318884 2.85478326 2.4619099 4.41941308 3.125 7.6875 C3.29257813 8.49574219 3.46015625 9.30398437 3.6328125 10.13671875 C3.75398437 10.75160156 3.87515625 11.36648437 4 12 C3.01 12.495 3.01 12.495 2 13 C1.47044766 11.21089097 0.9516063 9.41860852 0.4375 7.625 C0.14746094 6.62726563 -0.14257812 5.62953125 -0.44140625 4.6015625 C-1 2 -1 2 0 0 Z " fill="#CDB737" transform="translate(163,157)"/>
<path d="M0 0 C2.39073445 3.82517513 2.55966552 7.59665524 3 12 C1 11 1 11 0.33203125 9.00390625 C0.16058594 8.19824219 -0.01085937 7.39257812 -0.1875 6.5625 C-0.36667969 5.75941406 -0.54585937 4.95632812 -0.73046875 4.12890625 C-1 2 -1 2 0 0 Z " fill="#C8A300" transform="translate(138,65)"/>
<path d="M0 0 C1.8830622 3.26397448 2.67342446 6.24438133 3 10 C2.34 10.66 1.68 11.32 1 12 C0.63762737 10.37681021 0.28534843 8.7513642 -0.0625 7.125 C-0.25972656 6.22007813 -0.45695313 5.31515625 -0.66015625 4.3828125 C-1 2 -1 2 0 0 Z " fill="#3A3106" transform="translate(146,102)"/>
<path d="M0 0 C2.95183101 2.95183101 3.08663988 5.95511947 4 10 C3.01 9.67 2.02 9.34 1 9 C0.67 6.03 0.34 3.06 0 0 Z " fill="#98253A" transform="translate(202,126)"/>
<path d="M0 0 C4.55015893 1.51671964 6.50057264 5.16891053 9 9 C8.01 9.495 8.01 9.495 7 10 C5.83043409 8.52312468 4.66441854 7.04343707 3.5 5.5625 C2.8503125 4.73878906 2.200625 3.91507812 1.53125 3.06640625 C0 1 0 1 0 0 Z " fill="#E9CAD1" transform="translate(183,103)"/>
<path d="M0 0 C1.39195915 4.17587745 -0.17676781 6.13474776 -2 10 C-2.66 9.67 -3.32 9.34 -4 9 C-2.25 2.25 -2.25 2.25 0 0 Z " fill="#F7EBED" transform="translate(66,126)"/>
<path d="M0 0 C2.18975773 3.28463659 2.99806563 6.20696275 4 10 C3.01 9.67 2.02 9.34 1 9 C0.67 6.03 0.34 3.06 0 0 Z " fill="#EFD4D9" transform="translate(199,124)"/>
</svg>
