<svg width="253" height="113" viewBox="0 0 253 113" fill="none" xmlns="http://www.w3.org/2000/svg">
<path fill-rule="evenodd" clip-rule="evenodd" d="M195.298 71.1233C198.371 73.0998 200.758 76.1263 202.251 80.0284C202.614 80.9763 202.886 82.09 203.041 83.0889C203.426 85.5968 202.97 88.755 199.943 89.1546C198.358 89.3629 197.367 88.228 196.285 87.3013C195.277 86.4342 194.215 85.8476 192.956 85.4268C187.768 83.6882 179.485 84.7169 173.67 85.7753C170.689 96.3085 164.769 111.309 152.89 112.827C147.907 113.464 142.927 112.431 139.315 108.691C137.325 106.629 135.677 103.526 135.318 100.631C135.029 98.302 135.205 95.9854 135.866 93.7368C138.161 85.8858 145.795 80.3175 153.463 76.5896C149.073 76.4876 145.733 73.5929 143.667 69.5675C139.775 74.7108 134.586 79.4503 128.248 80.1432C124.126 80.5938 120.091 79.5863 116.876 76.8617C112.845 73.4441 110.91 68.1265 110.675 62.877C110.5 62.826 110.324 62.775 110.149 62.7154C106.369 70.8087 99.4746 84.8487 91.0333 85.1462C87.3792 85.2737 84.5134 80.9364 84.0033 77.6931C83.6354 75.3297 83.4932 72.7496 83.3134 70.3607C83.0417 66.7689 82.7908 63.1728 82.494 59.581C82.1093 54.9265 81.6094 47.4858 79.1301 43.8302C74.0963 53.5685 71.0024 62.6262 67.135 72.8915C64.1582 80.8105 61.382 88.8231 58.7229 96.8568C58.5724 97.3116 58.4303 97.7622 58.263 98.2085C57.1551 101.192 55.0144 103.156 51.6697 102.298C49.0775 101.63 45.0805 99.1947 42.7684 97.7495C38.4537 95.2288 37.467 90.1408 37.3959 85.482C37.1116 67.0299 35.7361 48.616 34.3856 30.2148C34.2811 28.7781 34.2058 24.6252 32.3286 24.9057C29.774 25.2798 26.3457 28.7569 24.8489 30.6909C20.6094 36.17 18.5649 43.2856 17.8751 50.1292C17.7287 51.5872 17.8625 53.4532 18.0883 54.8857C18.544 57.8059 19.6352 60.7304 21.7759 62.8047C23.9458 64.6197 24.2301 67.846 21.2574 69.2487C18.6234 70.4899 13.2969 68.9554 10.8469 67.8035C5.25695 65.1723 1.70314 60.3903 0.478122 54.2651C-3.23038 35.7152 15.2829 14.6956 33.562 14.7636C40.7532 14.7892 47.7521 17.9899 48.8183 26.0449C49.3409 29.998 49.5876 34.1127 49.8551 38.0913C50.2272 43.5959 50.5492 49.1006 50.9045 54.6052C51.1512 58.3755 51.4021 62.1501 51.7073 65.9204C54.1113 56.2757 56.4485 46.7159 59.5591 37.2284C63.5854 24.961 72.3946 0.825703 87.7596 0.0988387C90.4814 -0.245465 93.939 0.345378 96.4393 1.31878C103.003 3.87343 106.658 9.56508 108.146 16.3661C108.648 18.653 107.995 21.5222 105.453 22.1896C102.355 23.0014 101.523 19.6689 99.1861 19.7964C95.8539 19.975 91.673 24.7655 89.8166 27.1161C87.3248 30.2743 85.0796 33.8066 83.0435 37.407C84.6908 36.9606 86.5764 36.9096 87.7847 36.8459C92.2165 36.4591 97.5723 38.2868 97.8148 43.5959C97.9946 47.5065 97.6935 51.7955 97.5347 55.7231C97.4469 57.8612 97.3633 59.9993 97.3089 62.1374C98.8057 59.1024 100.077 55.8379 101.101 52.6074C99.6377 46.9115 98.6928 35.7407 104.885 33.5218C109.241 32.2211 117.904 33.6536 118.301 39.1837C118.322 39.46 118.322 39.7618 118.301 40.0849C122.411 34.559 128.026 30.3551 134.758 29.9045C139.892 29.5602 145.114 31.6218 145.95 37.3432C146.076 38.1976 146.13 39.052 146.117 39.9064C147.631 37.0797 149.525 34.4613 151.845 32.1446C155.642 28.353 160.893 25.233 166.244 24.5487C172.946 23.6943 179.147 26.3 180.067 33.7514C180.33 35.8725 179.803 38.0148 178.942 39.9786C180.079 40.3017 181.158 40.7522 181.998 41.6321C183.533 36.5271 186.037 31.7791 189.674 27.7154C192.869 24.1449 198.22 20.0302 203.049 19.2566C209.668 18.1982 215.525 20.8931 216.579 28.1278C216.834 29.8705 216.566 31.6431 216.039 33.3136C216.788 33.4666 217.536 33.7811 218.138 34.2615C218.059 33.7216 218.005 33.1648 217.979 32.591C217.766 27.9237 219.56 23.2012 222.466 19.6307C226.12 15.1335 231.275 12.6043 236.936 11.9455C245.461 10.955 252.054 14.8062 252.255 24.1619C252.359 29.0544 250.453 35.0266 246.13 37.6407C245.143 38.2401 244.169 38.5801 243.241 38.6992C246.519 41.6406 248.981 45.0114 249.429 49.5681C250.281 58.2692 242.864 66.4645 234.557 67.0851C230.422 67.3954 226.764 66.5793 224.113 63.7951C220.781 66.9109 216.98 69.4953 212.272 69.4825C208.075 69.5803 205.115 67.8375 203.237 64.9513C201.598 67.4167 199.47 69.4825 196.652 70.6344C196.205 70.8172 195.754 70.9745 195.298 71.102V71.1233ZM185.381 68.4793C182.533 65.5974 180.92 61.1299 180.359 56.9048C179.352 60.9939 178.394 65.1043 177.483 69.219C180.104 68.8024 182.797 68.5134 185.381 68.4793ZM219.618 39.001C219.489 39.6981 219.246 40.3909 218.899 41.0498C217.95 43.3154 217.185 45.8403 216.604 48.2249C216.265 49.6149 215.191 54.7624 215.768 56.3692C216.729 56.2927 218.59 55.0855 219.89 54.1546C219.572 50.2652 221.571 46.7244 225.718 46.7202C223.377 44.5098 221.052 41.9254 219.618 39.0052V39.001ZM236.079 28.7824C237.111 27.6049 238.612 28.1448 240.197 25.9982C241.43 24.4722 242.091 22.2363 239.791 22.8442C236.994 23.5795 235.941 26.0194 236.079 28.7824ZM142.045 51.702C138.483 56.926 133.048 61.1767 127.65 63.2128C128.064 64.2797 128.904 64.7303 130.635 64.4922C134.758 63.9226 139.449 57.4319 141.685 53.806C141.79 53.1047 141.911 52.4033 142.045 51.7062V51.702ZM74.5018 88.0749C69.8233 88.1557 66.5162 84.7467 66.257 80.0582C65.981 75.0126 69.7857 71.0255 74.715 70.9192C79.1761 70.8215 82.5543 74.341 82.7968 78.8C83.0602 83.6755 79.912 87.9814 74.506 88.0749H74.5018ZM201.799 42.9966C200.963 42.4653 200.319 41.6916 200.089 40.6205C199.696 38.8012 200.725 37.2879 201.749 35.9235C202.104 35.4517 203.371 34.0319 204.224 32.8757C204.028 32.965 203.856 33.05 203.747 33.1223C199.604 35.7705 197.547 40.9733 196.799 45.6788C196.481 47.6808 196.042 51.3492 196.82 53.3087C196.853 53.3937 197.087 53.8996 197.217 53.9208C197.388 53.9506 197.551 53.9506 197.714 53.8868C199.14 53.3512 200.315 49.5341 200.674 48.2079C201.151 46.4651 201.465 44.7309 201.799 42.9923V42.9966ZM130.581 47.6851C130.844 47.4598 131.087 47.243 131.304 47.0475C132.257 46.1761 134.574 43.8467 135.548 41.8999C133.75 43.0391 132.015 45.2707 130.581 47.6893V47.6851ZM154.713 90.7401C151.226 92.0621 147.48 93.8686 145.825 95.9897C144.52 97.6602 145.369 97.775 147.083 97.4604C148.793 97.1459 149.976 96.7803 151.318 95.5774C152.665 94.3702 153.794 92.6061 154.713 90.7401ZM164.2 48.2844C163.351 47.7148 162.707 46.903 162.528 45.7723C162.063 42.9031 164.33 41.139 167.219 38.1211C162.528 39.8128 159.643 46.2441 158.731 50.8518C158.342 52.8114 157.774 56.4712 158.526 58.418C159.613 61.249 162.381 54.6392 162.657 53.8656C163.326 51.9868 163.765 50.1547 164.2 48.2844Z" fill="#051A48"/>
<path fill-rule="evenodd" clip-rule="evenodd" d="M78.9004 77.4907C79.1011 81.1336 76.534 84.0283 73.0889 84.0878C69.8654 84.143 67.5909 81.9114 67.407 78.4939C67.2105 74.9361 69.811 72.1264 73.3983 72.0626C76.396 71.9861 78.7332 74.3282 78.9046 77.5205V77.4907H78.9004ZM203.33 39.9956C202.439 44.0082 201.055 55.9739 195.432 55.0345C194.04 54.8007 191.452 53.1684 192.932 43.851C194.349 34.933 198.689 31.0267 201.026 29.5304C202.318 28.7058 205.968 27.4179 206.169 29.8025C206.344 31.8896 203.752 34.2274 202.381 36.0595C201.243 37.577 200.24 39.0307 202.573 39.7576C202.828 39.8383 203.07 39.9233 203.33 39.9956ZM223.055 58.503C225.179 62.4816 228.712 63.4465 232.998 63.1277C237.605 62.7834 246.448 57.6529 245.54 48.4247C244.658 39.4473 234.386 37.0116 232.634 30.3211C231.07 24.3446 233.537 19.1503 239.432 18.6615C243.835 18.2959 242.664 23.8728 240.778 26.2107C240.13 27.0098 239.102 28.013 237.86 28.2808C235.69 28.7526 236.551 30.6781 236.551 30.6781C237.756 33.9299 240.323 35.9405 243.463 34.0362C248.53 30.9714 248.354 22.8186 248.354 22.8186C248.183 14.8571 242.693 12.2982 235.845 13.0931C224.314 14.4321 218.791 23.8133 219.125 31.0692C219.598 41.4196 231.221 45.2919 232.258 51.6594C232.843 55.2512 230.761 56.8622 229.298 57.2151C227.646 57.6146 226.835 56.3862 226.68 54.9112C229.101 50.4055 226.425 47.4258 223.774 47.9188C221.964 48.2546 220.304 49.9422 221.249 53.8783C219.614 55.145 214.288 59.3064 212.423 56.637C210.379 53.704 213.251 43.2261 215.25 38.5079C215.25 38.5079 217.118 35.0648 214.162 34.4315C212.059 33.9809 211.018 34.3592 211.901 32.1489C212.565 30.4741 212.946 28.7228 212.712 27.1076C211.892 21.4754 207.498 19.5286 202.067 20.3958C196.807 21.2331 182.513 29.7387 181.313 51.0431C180.865 59.0088 185.31 70.5494 194.336 66.8598C198.074 65.3338 200.499 61.6783 202.184 57.3213C203.041 62.0311 205.441 65.6441 210.834 65.5209C215.818 65.5336 219.752 61.9078 223.051 58.5073L223.055 58.503ZM86.5975 1.2465C86.5975 1.2465 100.763 -0.674807 104.304 15.5117C104.304 15.5117 104.785 17.9431 103.447 18.2959C102.109 18.6487 101.072 15.6393 97.677 15.8263C94.2821 16.0091 82.68 19.4904 63.3974 70.5622C60.5042 78.4216 57.4814 86.9867 54.9477 94.6252C54.3122 96.5423 53.6182 99.0969 50.9006 98.3998C48.4924 97.7834 42.639 94.1151 42.639 94.1151C39.219 92.1173 38.5877 87.7136 38.5292 84.0325C38.2449 65.5379 36.8651 47.0602 35.5105 28.6166C35.2346 24.8802 34.6116 20.3618 30.577 20.9569C26.4922 21.5604 15.9311 29.1564 13.9744 48.4587C13.9744 48.4587 13.0128 57.8952 18.7282 63.3318C18.7282 63.3318 20.4925 64.7175 18.8076 65.5124C17.1185 66.3072 4.14503 65.2446 1.56538 52.3438C-1.77101 35.6557 15.2162 15.856 32.1658 15.9198C35.3851 15.9326 43.839 16.7614 44.9302 24.978C46.0089 33.1053 46.8701 55.5275 48.3126 70.4729C48.7641 75.1656 49.0902 75.4674 49.4916 75.3909C50.0937 75.2762 50.5745 73.8692 51.7201 69.3295C56.6954 49.6106 66.7297 2.02862 86.5933 1.25075L86.5975 1.2465ZM123.469 52.9304C127.546 51.6297 138.061 43.3834 137.07 38.1763C136.907 37.3092 136.175 36.8884 134.494 37.4835C129.737 39.1625 125.104 47.2472 123.469 52.9304ZM86.6268 37.9935C86.6268 37.9935 93.6926 37.3687 93.9184 42.308C94.1441 47.2472 93.1156 61.0322 93.4292 66.0564C93.7469 71.0765 97.7774 62.6984 97.7774 62.6984C99.4163 59.5104 101.097 55.3915 102.402 51.1153C100.813 47.3025 100.779 42.4015 101.975 38.4101C102.732 35.8895 103.831 34.712 105.487 34.2189C108.284 33.3858 114.15 34.3125 114.413 37.9723C114.576 40.2081 112.62 46.1293 109.915 52.5691C110.726 53.2322 111.8 53.432 112.691 53.466C115.342 43.0008 123.231 31.7621 133.558 31.0692C138.086 30.7674 141.531 32.5102 142.087 36.323C143.555 46.3716 133.173 57.4786 123.407 60.029C123.649 63.4805 125.154 66.235 129.603 65.6186C134.808 64.9003 139.967 57.8909 142.735 53.2874C145.415 33.9256 157.924 26.6272 165.187 25.7006C170.927 24.9695 175.493 27.0226 176.191 32.6759C176.446 34.746 175.643 37.0159 174.51 39.0477C173.904 40.1359 174.506 40.4632 175.133 40.6204C177.362 41.1858 180.176 41.4281 179.185 44.8116C178.252 47.9954 175.802 57.1981 172.821 71.0085C177.337 70.0903 181.417 69.6313 184.423 69.627C190.753 69.6228 195.975 72.8958 198.522 79.5438C198.986 80.751 200.094 84.9507 198.237 85.1972C197.501 85.295 196.381 82.9188 192.367 81.5756C186.234 79.5226 176.651 80.887 170.283 82.1325C166.671 95.6113 160.78 107.645 151.197 108.865C139.959 110.297 136.739 101.576 136.392 98.7536C134.95 87.0685 147.493 79.038 160.726 74.3538C161.508 71.3145 162.277 68.2668 163.013 65.2148C161.24 68.3391 158.882 70.8257 155.684 71.9776C148.655 74.511 144.449 68.9554 142.969 62.6772C135.891 73.9754 129.724 75.833 126.592 76.1773C116.721 77.257 111.403 68.6068 111.809 59.3956C110.533 59.1916 108.953 58.7793 107.498 58.0142C104.567 64.2797 97.2213 80.8955 89.5576 81.1676C87.9313 81.2271 85.5674 80.9976 85.1746 78.0006C84.3998 72.0759 83.0604 43.0445 80.6466 40.6078C79.1969 39.144 82.8389 38.1976 86.6184 37.9935H86.6268ZM157.753 85.1419C150.967 87.161 144.984 89.7624 142.476 92.9717C139.75 96.4572 141.711 99.3817 146.159 98.5656C149.253 98.0002 153.752 96.9843 157.753 85.1419ZM165.768 45.3897C165.082 48.1994 162.779 61.1979 157.184 60.1735C155.73 59.9057 153.05 58.2097 154.881 48.9263C156.633 40.0424 161.315 36.2423 163.824 34.8055C165.204 34.0149 169.088 32.8162 169.226 35.2051C169.347 37.2964 166.554 39.5748 165.053 41.3686C163.774 42.9031 162.586 44.2973 165.128 45.1474C165.342 45.2197 165.555 45.3004 165.768 45.3854V45.3897Z" fill="url(#paint0_linear_7788_8048)"/>
<path d="M104.303 15.5117C100.762 -0.674807 86.597 1.2465 86.597 1.2465L86.5929 1.25075C66.7292 2.02862 56.6949 49.6106 51.7196 69.3295C50.574 73.8692 50.0932 75.2762 49.4911 75.3909C49.0897 75.4674 48.7636 75.1656 48.3121 70.4729C46.8697 55.5275 46.0084 33.1053 44.9297 24.978C43.8385 16.7614 35.3846 15.9326 32.1653 15.9198C15.2157 15.856 -1.7715 35.6557 1.56489 52.3438C4.14454 65.2446 17.118 66.3072 18.8071 65.5124C20.4921 64.7175 18.7277 63.3318 18.7277 63.3318C13.0123 57.8952 13.974 48.4587 13.974 48.4587C15.9306 29.1564 26.4917 21.5604 30.5765 20.9569C34.6111 20.3618 35.2341 24.8802 35.51 28.6166C36.8646 47.0602 38.2444 65.5379 38.5287 84.0325C38.5872 87.7136 39.2185 92.1173 42.6385 94.1151C42.6385 94.1151 48.4919 97.7834 50.9001 98.3998C53.6177 99.0969 54.3118 96.5423 54.9473 94.6252C57.4809 86.9867 60.5037 78.4216 63.3969 70.5622C82.6795 19.4904 94.2816 16.0091 97.6766 15.8263C101.071 15.6393 102.108 18.6487 103.446 18.2959C104.784 17.9431 104.303 15.5117 104.303 15.5117Z" fill="url(#paint1_linear_7788_8048)"/>
<path fill-rule="evenodd" clip-rule="evenodd" d="M77.0859 76.4238C76.8016 74.5365 75.4177 73.0828 73.4318 73.1253C70.9148 73.1805 69.0292 75.0593 69.1714 77.6565C69.2257 78.6256 69.4933 79.4673 69.9616 80.1176C69.5058 77.2952 71.312 75.0211 74.1551 74.9616C75.4177 74.9361 76.4379 75.5141 77.0859 76.4238ZM238.211 29.3094C238.454 29.964 238.763 30.5888 239.144 31.0904C240.64 30.6993 241.899 29.6409 242.865 28.4465C244.596 26.3041 245.846 22.1512 244.144 19.6774C244.554 22.045 243.496 24.9439 242.146 26.6144C241.067 27.9492 239.88 28.8843 238.211 29.3094ZM246.23 19.3628C245.056 14.8741 241.125 13.5564 236.05 14.1472C231.501 14.6743 227.349 16.6551 224.406 20.2767C222.186 23.0099 220.735 26.674 220.898 30.253C220.977 32 221.425 33.5388 222.102 34.933C221.835 34.0446 221.663 33.101 221.617 32.0851C221.454 28.506 222.901 24.8419 225.125 22.1087C228.068 18.4872 232.22 16.5106 236.769 15.9793C241.071 15.4777 244.554 16.3533 246.226 19.3628H246.23ZM233.838 49.8486C233.905 50.1036 233.963 50.3629 234.009 50.6307C234.549 53.9463 233.148 57.402 229.711 58.2309C227.939 58.6602 226.547 57.9759 225.723 56.7219C226.17 59.0428 227.918 60.6708 230.435 60.063C233.872 59.2341 235.272 55.7783 234.733 52.4628C234.582 51.5319 234.273 50.669 233.842 49.8486H233.838ZM225.84 50.9878C225.924 49.8699 225.334 48.7264 224.096 48.9517C222.391 49.2663 222.671 51.4554 222.976 52.7136L223.252 53.857C221.747 55.0217 220.267 56.1949 218.611 57.1343C216.299 58.4477 212.875 59.6464 210.989 56.9387C210.968 56.909 210.947 56.875 210.926 56.8452C211.09 57.5933 211.345 58.2479 211.708 58.775C215.107 63.6505 221.09 57.6783 223.62 55.0642L223.971 55.6975L223.975 55.6933C223.624 54.2353 222.717 51.1791 224.824 50.788C225.184 50.72 225.535 50.8008 225.848 50.992L225.84 50.9878ZM213.598 37.1306C213.786 36.6843 214.15 35.9659 214.066 35.5409C213.121 35.0435 211.675 35.5111 210.542 34.4017C210.529 34.9458 210.659 35.4771 211.027 35.9659C211.654 36.8033 212.632 36.9818 213.598 37.1306ZM210.805 25.8281C209.827 21.7644 206.315 20.8038 202.343 21.4371C198.563 22.0407 193.96 25.7473 191.477 28.5187C186.067 34.5589 183.533 42.3419 183.081 50.4097C182.931 53.1131 183.491 56.9982 184.917 60.0842C184.026 57.3978 183.679 54.4351 183.805 52.2417C184.26 44.174 186.79 36.3952 192.2 30.3508C194.683 27.5793 199.287 23.8728 203.066 23.2692C206.352 22.7463 209.325 23.3159 210.805 25.8281ZM206.152 39.8085L205.09 39.5152C204.517 42.0784 204.132 44.6883 203.443 47.2259C202.381 51.1111 200.123 56.909 195.148 56.0801C193.667 55.8335 192.568 54.8857 191.861 53.6232C192.401 55.6805 193.663 57.5423 195.871 57.9121C203.25 59.1448 204.99 45.0709 206.156 39.8128L206.152 39.8085ZM243.467 46.2058C241.765 40.1231 234.49 37.5429 231.693 32.0638C233.433 38.2103 240.695 40.8032 243.467 46.2058ZM203.15 37.3219C203.718 37.5047 204.275 37.6577 204.852 37.8192C206.486 35.7831 208.89 33.5218 208.66 30.7546C208.593 29.9342 208.326 29.3094 207.933 28.8503L207.941 28.9226C208.217 32.2338 204.776 34.7545 203.154 37.3261L203.15 37.3219ZM16.7924 63.166C15.6678 61.929 14.7772 60.5178 14.0915 59.0088C13.9745 61.0831 14.4427 62.9874 16.7924 63.166ZM42.9694 23.3924C41.7151 18.5297 36.7983 17.0037 32.1658 16.9867C16.6043 16.9272 0.143888 35.4346 3.30887 51.2513C3.58063 52.603 3.98618 53.8655 4.53389 55.0259C4.3332 54.4011 4.16596 53.755 4.03217 53.0834C-0.759197 29.1181 34.875 8.71913 42.9735 23.3924H42.9694ZM36.585 23.0864C37.0282 24.6336 37.1829 26.3126 37.2874 27.7494C38.6421 46.2355 40.026 64.7302 40.3103 83.2716C40.3437 85.2949 40.5444 87.8326 41.5855 89.7454C41.1632 88.2066 41.0545 86.5276 41.0336 85.1037C40.7493 66.5622 39.3654 48.0676 38.0107 29.5814C37.8602 27.5453 37.6094 25.0162 36.585 23.0821V23.0864ZM101.858 12.5702C100.437 8.38332 97.8485 4.94028 93.5296 3.25702C75.8525 -3.62057 66.3868 23.877 62.2603 36.4675C58.7315 47.2259 56.2146 58.0864 53.4468 69.0446C52.9075 71.1785 52.0838 76.6916 49.2491 76.462C48.5927 76.411 48.1245 76.1007 47.79 75.6587C47.8193 75.7904 47.8485 75.9222 47.882 76.054C48.1537 77.1592 48.7182 78.1921 49.9724 78.2941C51.5403 78.4216 52.3221 77.0486 52.7988 75.7394C53.359 74.1964 53.7688 72.4707 54.1701 70.8767C56.9379 59.9184 59.4548 49.058 62.9836 38.2995C67.1143 25.7133 76.5758 -1.78853 94.2529 5.08905C97.9238 6.51728 100.345 9.22071 101.862 12.5702H101.858ZM82.3573 39.3792C83.2562 41.2495 83.6743 44.1357 83.9043 45.6617C84.5231 49.6956 84.8868 53.823 85.2255 57.8909C85.6979 63.6038 85.8192 70.0945 86.6972 75.6799C86.7724 76.1688 87.0442 77.2399 87.5083 77.9498C85.3927 67.0001 86.7431 53.3767 83.5364 41.1645C85.6686 40.8244 89.5569 40.4716 91.1666 41.9636L91.154 41.6618C91.0412 39.2219 87.5919 38.9031 85.7857 39.0604L85.7272 39.0647C85.1335 39.0987 83.5447 39.1922 82.3615 39.3792H82.3573ZM113.581 58.8388C113.473 61.6357 113.949 64.6494 115.17 67.2423C114.472 65.0872 114.213 62.7621 114.309 60.5773L114.38 58.9663L113.586 58.8388H113.581ZM144.236 59.5656C144.683 61.4699 145.056 63.2467 145.892 65.0405C145.286 63.2042 144.893 61.1214 144.449 59.2298L144.24 59.5656H144.236ZM168.586 45.4024L167.524 44.9731C166.851 47.7403 166.282 50.516 165.329 53.2024C164.041 56.8155 161.495 62.065 156.879 61.2234C155.403 60.9514 154.3 60.0247 153.585 58.7708C153.668 59.0896 153.765 59.3999 153.877 59.6974C154.534 61.4019 155.784 62.7239 157.598 63.0554C164.798 64.3731 167.323 50.5967 168.59 45.4024H168.586ZM166.395 58.0226L164.735 64.9172C163.924 68.2923 163.063 71.6545 162.202 75.0126C153.923 77.9455 141.326 83.5394 138.609 92.8399C137.827 95.5178 137.877 98.3105 139.14 100.818C138.613 98.9268 138.788 96.5295 139.332 94.6719C142.049 85.3715 154.647 79.7776 162.925 76.8446C163.786 73.4823 164.648 70.12 165.459 66.7493L168.419 54.4606L166.399 58.0226H166.395ZM197.062 80.0539C195.394 74.239 190.285 70.6939 184.432 70.7024C180.109 70.7066 175.903 71.493 171.684 72.3516L171.237 74.4217C175.852 73.4823 180.414 72.5387 185.155 72.5344C190.64 72.5302 194.771 75.2081 197.067 80.0539H197.062ZM177.374 43.9614C177.462 43.6554 177.742 42.7797 177.567 42.5715C177.22 42.1506 175.255 41.7766 174.707 41.6363C174.084 41.479 173.578 41.2027 173.21 40.8414C173.164 42.0826 173.967 43.0985 175.426 43.4683C175.769 43.5576 176.664 43.7319 177.374 43.9572V43.9614ZM174.28 31.2902C173.31 27.1075 169.418 26.2404 165.408 26.7505C161.01 27.3116 156.599 30.0235 153.484 33.1307C148.058 38.5461 145.482 45.6532 144.437 53.1726C141.431 58.1799 135.966 65.8184 129.841 66.6685C126.392 67.1446 124.021 65.9374 122.738 63.5783C123.695 67.1148 126.308 69.0914 130.564 68.5005C136.694 67.6504 142.158 60.012 145.16 55.0047C146.201 47.4852 148.781 40.3781 154.208 34.9628C157.318 31.8555 161.733 29.1436 166.132 28.5825C169.468 28.1574 172.725 28.6888 174.28 31.2902ZM140.335 35.8682V35.8554C139.855 32.5654 136.43 31.9533 133.675 32.1361C122.696 32.8714 116.349 45.3684 113.983 54.9069C112.106 54.8346 110.579 54.3798 108.874 53.2959L108.414 54.5881C110.893 55.9866 111.867 56.2799 114.777 56.4286L115.133 55.0217C117.39 46.108 124.448 34.6397 134.398 33.9724C136.539 33.8278 139.085 34.1679 140.339 35.8724L140.335 35.8682ZM112.641 37.9637C112.657 37.7427 112.662 37.5472 112.649 37.3729C112.486 35.1243 107.611 34.729 105.989 35.2136C104.592 35.6301 104.074 36.8756 103.673 38.2018C101.779 44.5268 103.154 46.6266 104.095 50.9155C102.866 54.9494 101.273 59.0556 99.3745 62.7494C98.4255 64.7515 96.1761 69.2912 93.6299 68.6706C93.1198 68.5473 92.7394 68.2838 92.4509 67.9395C92.6265 69.0829 93.1115 70.2008 94.349 70.5069C96.8911 71.1275 99.1446 66.5877 100.094 64.5857C102.155 60.5773 103.689 56.4329 105.006 52.1227C103.388 48.2376 103.179 44.0847 104.392 40.0381C104.789 38.7118 105.311 37.4664 106.708 37.0498C107.966 36.6758 111.186 36.8246 112.641 37.9637ZM138.868 37.4792C139.349 41.4705 135.46 45.7297 132.801 48.1526C130.581 50.1759 126.868 53.0111 124 53.925L122.215 54.4946L121.563 56.7644L124.724 55.757C127.592 54.8431 131.304 52.0079 133.525 49.9846C136.263 47.4852 140.314 43.039 139.533 38.9414C139.415 38.325 139.181 37.8405 138.868 37.4749V37.4792ZM146.473 99.6154C143.592 100.143 141.322 99.3051 140.202 97.7281C140.565 100.406 143.337 102.153 147.196 101.447C156.286 99.7812 158.673 91.2161 161.265 83.5437L159.777 83.9857C157.381 91.0844 154.655 98.115 146.477 99.6112L146.473 99.6154ZM165.676 42.716C166.249 42.9115 166.801 43.1453 167.361 43.3706C169.121 41.3558 171.885 39.0902 171.713 36.2082C171.663 35.3581 171.396 34.712 170.982 34.2401C171.237 37.6874 167.499 40.2293 165.672 42.716H165.676Z" fill="url(#paint2_linear_7788_8048)"/>
<defs>
<linearGradient id="paint0_linear_7788_8048" x1="151.532" y1="108.385" x2="151.536" y2="18.7678" gradientUnits="userSpaceOnUse">
<stop stop-color="#FF4C00"/>
<stop offset="1" stop-color="#FFBB00"/>
</linearGradient>
<linearGradient id="paint1_linear_7788_8048" x1="151.531" y1="108.385" x2="151.536" y2="18.7678" gradientUnits="userSpaceOnUse">
<stop stop-color="#D32127"/>
<stop offset="1" stop-color="#FFBB00"/>
</linearGradient>
<linearGradient id="paint2_linear_7788_8048" x1="116.938" y1="24.9642" x2="124.572" y2="101.605" gradientUnits="userSpaceOnUse">
<stop stop-color="#FFE4BC"/>
<stop offset="1" stop-color="#FF5D00"/>
</linearGradient>
</defs>
</svg>
