<svg xmlns="http://www.w3.org/2000/svg" width="246" height="127" fill="none"><path fill="#FFFF00" d="M110.615 46.4783C106.578 46.4783 102.811 48.631 100.389 52.1291H116.265C116.265 51.86 116.265 51.5909 116.265 51.3218C116.265 48.0928 114.382 46.4783 110.615 46.4783Z"/><path fill="#FFFF00" d="M235.469 13.9189C214.481 12.5734 150.977 7.72992 128.374 6.92266C93.9308 5.03907 21.816 1.00279 12.398 0.733707C4.86361 0.464622 0.55825 4.5009 0.827336 12.0353C1.36551 20.646 2.44185 28.9876 3.2491 37.5984C4.86361 50.7835 6.47812 63.9687 8.09263 77.1539C9.16897 87.11 13.7434 91.6844 23.9686 91.6844C44.15 91.4154 107.654 91.1463 130.526 91.1463C130.526 90.6081 130.795 90.0699 130.795 89.5318L144.25 39.2129C145.864 33.5621 149.9 30.064 155.013 30.064C158.511 30.064 161.471 31.6785 162.817 34.1003C166.853 31.1403 171.158 29.5258 175.733 29.5258C181.922 29.5258 187.572 31.9476 191.34 35.9838C195.376 40.2892 197.529 46.4782 197.529 53.7435C197.529 62.8923 194.299 71.234 188.111 77.692C182.46 83.6119 174.656 87.11 166.853 87.11C160.664 87.11 155.82 85.2264 152.053 81.7283C152.053 81.7283 149.093 93.8371 147.748 103.255C147.21 106.484 146.671 109.444 146.671 112.673C146.671 116.44 148.555 117.517 151.784 115.364C153.129 114.557 154.475 113.211 155.551 112.135C160.395 106.484 166.853 100.564 173.042 95.1826C176.271 92.4917 178.962 90.8772 182.729 90.8772C203.179 91.1463 204.525 91.4154 225.244 91.6844C233.855 91.6844 237.891 87.9173 238.699 79.3065C240.044 68.005 241.658 56.4343 243.004 45.1327C243.811 37.8674 244.887 30.6021 245.157 23.0678C245.695 17.1479 241.928 13.6498 235.469 13.9189ZM54.9134 77.9611C53.2989 83.6119 49.2626 87.11 44.4191 87.11C41.4592 87.11 38.7683 86.0337 37.4229 83.881C36.0775 82.2665 35.0011 79.3065 36.3466 74.463L40.6519 58.587L29.0813 30.3331C28.274 28.7185 27.4668 26.5659 27.4668 23.875C27.4668 18.4933 32.0412 14.457 37.9611 14.457C42.5355 14.457 45.7645 16.8788 47.379 21.7223L54.3753 40.5583L73.7494 19.3006C75.9021 16.8788 78.862 14.188 83.4364 14.188C88.5491 14.188 92.0472 17.6861 92.0472 22.7987C92.0472 26.5659 89.6254 29.5258 88.8182 30.3331L59.2188 61.0088L54.9134 77.9611ZM134.294 57.7797C132.679 64.7759 128.374 66.1214 124.876 66.1214H97.967C99.0434 69.3504 101.734 70.9649 106.578 70.9649C108.73 70.9649 111.421 70.4267 113.305 69.3504C115.458 68.274 117.072 67.7359 118.956 67.7359C123.53 67.7359 126.759 71.234 126.759 75.8084C126.759 78.4993 125.145 81.1901 122.992 82.8046C118.148 86.0337 111.959 87.6482 105.232 87.6482C97.4289 87.6482 90.9708 85.2264 86.3964 80.921C81.8219 76.6157 79.4002 70.1576 79.4002 62.6233C79.4002 54.5507 82.6292 46.4782 88.28 40.2892C94.4689 33.5621 102.811 29.7949 111.959 29.7949C125.952 29.7949 135.101 38.6747 135.101 52.1289C134.832 54.0125 134.832 56.1652 134.294 57.7797ZM218.786 79.5756V80.1138C217.71 86.0337 212.866 90.0699 206.946 90.0699C203.717 90.0699 201.027 88.9936 199.143 86.8409C197.529 84.9573 196.721 82.2665 197.259 79.3065V78.7684C198.336 72.8485 203.179 68.8122 209.099 68.8122C212.328 68.8122 215.019 69.8886 216.903 72.0412C218.517 74.1939 219.324 76.8848 218.786 79.5756ZM233.048 26.2968L219.593 62.3542C218.248 65.8523 215.826 67.4668 212.597 67.4668C210.714 67.4668 208.83 66.6595 207.754 65.3141C206.946 64.2378 206.139 62.6233 206.408 59.9324L212.059 24.9514C212.866 20.9151 215.826 17.9551 219.593 17.9551H228.204C230.088 17.9551 231.702 18.7624 232.779 20.1078C233.855 21.9914 233.855 24.1441 233.048 26.2968Z"/><path fill="#FFFF00" d="M177.617 55.0888C177.617 49.9762 174.657 47.0163 169.544 47.0163C166.315 47.0163 163.355 48.6308 160.664 51.3217C157.973 54.2816 156.628 58.0488 156.628 62.0851C156.628 66.9286 159.857 70.4267 164.97 70.4267C172.773 70.4267 177.617 62.3541 177.617 55.0888Z"/><path fill="#fff" d="M7.28613 114.557C7.28613 108.099 12.1297 102.986 19.1259 102.986 22.624 102.986 24.7767 103.794 26.6603 105.139 27.1984 105.408 27.7366 106.215 27.7366 107.023 27.7366 108.368 26.6603 109.444 25.3148 109.444 24.5076 109.444 24.2385 109.175 23.9694 108.906 22.624 107.83 21.2786 107.292 19.395 107.292 15.6278 107.292 12.9369 110.521 12.9369 114.288 12.9369 118.055 15.6278 121.284 19.395 121.284 21.5476 121.284 22.8931 120.746 24.2385 119.4 24.7767 119.131 25.0457 118.862 25.5839 118.862 26.9293 118.862 28.0057 119.939 28.0057 121.015 28.0057 121.822 27.7366 122.36 27.1984 122.899 25.0457 124.782 22.8931 125.858 19.1259 125.858 12.1297 126.128 7.28613 121.015 7.28613 114.557ZM30.6956 122.629 38.4991 104.87C39.0372 103.524 40.1136 102.986 41.459 102.986H41.7281C43.0735 102.986 44.1498 103.794 44.688 104.87L52.4915 122.629C52.7606 122.899 52.7606 123.437 52.7606 123.706 52.7606 125.051 51.6842 126.128 50.3388 126.128 49.2625 126.128 48.4552 125.32 47.917 124.513L46.3025 121.015H36.3464L34.7319 124.782C34.1937 125.859 33.3864 126.397 32.5792 126.397 31.2338 126.397 30.4265 125.32 30.4265 123.975 30.4265 123.168 30.4265 122.899 30.6956 122.629ZM44.4189 116.441 41.1899 108.906 37.9609 116.441H44.4189ZM55.7211 123.437C55.1829 123.167 54.9138 122.36 54.9138 121.553 54.9138 120.208 55.9902 119.4 57.3356 119.4 57.8738 119.4 58.4119 119.669 58.681 119.938 60.2955 121.284 62.1791 122.091 64.3318 122.091 66.4845 122.091 67.5608 121.284 67.5608 119.938 67.5608 118.593 66.7536 118.055 62.9864 116.979 58.4119 115.902 55.452 114.557 55.452 109.982 55.452 105.946 58.681 103.255 63.2555 103.255 65.9463 103.255 68.3681 104.062 70.2517 105.139 70.7898 105.408 71.328 106.215 71.328 107.022 71.328 108.368 70.2517 109.175 68.9062 109.175 68.3681 109.175 68.099 109.175 67.5608 108.906 65.9463 107.83 64.3318 107.291 62.7173 107.291 60.8337 107.291 59.7573 108.099 59.7573 109.175 59.7573 110.79 60.8337 111.059 64.6009 112.135 69.1753 113.48 71.5971 115.095 71.5971 118.862 71.5971 123.437 68.099 125.858 63.2555 125.858 61.3719 126.127 58.4119 125.32 55.7211 123.437ZM76.9788 105.677C76.9788 104.332 78.0551 103.255 79.4005 103.255 80.746 103.255 81.8223 104.332 81.8223 105.677V123.706C81.8223 125.051 80.746 126.127 79.4005 126.127 78.0551 126.127 76.9788 125.051 76.9788 123.706V105.677ZM87.7422 105.677C87.7422 104.332 88.8186 103.255 90.164 103.255H90.7022C91.7785 103.255 92.5858 103.793 93.393 104.601L102.811 117.248V105.677C102.811 104.332 103.887 103.255 105.233 103.255 106.578 103.255 107.655 104.332 107.655 105.677V123.437C107.655 124.782 106.578 125.858 105.233 125.858H104.964C103.887 125.858 103.08 125.32 102.273 124.513L92.3167 111.597V123.706C92.3167 125.051 91.2403 126.127 89.8949 126.127 88.5495 126.127 87.4731 125.051 87.4731 123.706L87.7422 105.677ZM111.96 114.557C111.96 108.099 117.073 102.986 124.069 102.986 131.065 102.986 135.909 108.099 135.909 114.557 135.909 121.015 130.796 126.128 123.8 126.128 117.073 126.128 111.96 121.015 111.96 114.557ZM130.796 114.557C130.796 110.521 127.836 107.561 124.069 107.561 120.033 107.561 117.342 110.79 117.342 114.557 117.342 118.324 120.302 121.553 124.069 121.553 127.836 121.553 130.796 118.324 130.796 114.557Z"/></svg>